<?xml version="1.0" standalone="no"?>
<!DOCTYPE svg PUBLIC "-//W3C//DTD SVG 20010904//EN"
 "http://www.w3.org/TR/2001/REC-SVG-20010904/DTD/svg10.dtd">
<svg version="1.0" xmlns="http://www.w3.org/2000/svg"
 width="920.000000pt" height="980.000000pt" viewBox="0 0 920.000000 980.000000"
 preserveAspectRatio="xMidYMid meet">

<g transform="translate(0.000000,980.000000) scale(0.100000,-0.100000)"
fill="#000000" stroke="none">
<path d="M4516 9607 c-44 -100 -82 -186 -86 -190 -4 -5 -97 -17 -206 -28 -110
-11 -203 -20 -207 -22 -4 -1 62 -64 148 -140 85 -76 155 -144 155 -150 0 -7
-20 -101 -43 -209 -35 -159 -41 -195 -28 -188 9 4 89 51 179 104 89 53 167 96
173 96 8 0 163 -89 335 -191 l31 -18 -43 192 c-24 105 -43 200 -44 209 0 10
65 76 154 155 85 76 154 139 152 140 -1 1 -94 11 -206 22 -112 12 -207 24
-210 28 -4 5 -42 90 -86 190 -43 101 -81 183 -84 183 -3 0 -41 -82 -84 -183z"/>
<path d="M6240 8323 c0 -7 -37 -95 -81 -197 -57 -130 -87 -186 -98 -186 -32
-1 -393 -38 -396 -42 -1 -1 66 -64 150 -138 85 -74 154 -142 154 -150 0 -8
-19 -102 -42 -207 -24 -106 -41 -193 -37 -193 3 0 85 47 182 104 l176 103 179
-103 c108 -64 179 -99 180 -92 2 7 -17 99 -40 204 l-43 191 157 141 158 140
-37 6 c-20 3 -113 13 -207 22 -93 9 -173 19 -176 23 -4 3 -42 87 -84 186 -74
172 -95 214 -95 188z"/>
<path d="M2861 8130 c-46 -104 -88 -190 -95 -190 -25 0 -398 -39 -401 -42 -2
-2 66 -64 151 -138 84 -74 153 -142 154 -150 0 -8 -18 -99 -41 -203 -23 -103
-39 -190 -37 -193 3 -2 85 42 183 100 l177 104 168 -99 c92 -54 174 -101 182
-104 11 -5 5 38 -29 187 -23 106 -42 200 -42 208 0 8 69 76 154 150 84 74 152
136 150 138 -3 4 -358 41 -391 42 -19 0 -35 29 -105 190 -46 105 -86 190 -89
190 -3 0 -43 -85 -89 -190z"/>
<path d="M3930 5360 l0 -2860 175 0 174 0 3 383 3 382 28 57 c15 31 46 73 69
93 166 151 409 101 510 -104 22 -45 23 -55 26 -428 l3 -383 174 0 175 0 0
2860 0 2860 -670 0 -670 0 0 -2860z m990 2215 l0 -325 -320 0 -320 0 0 325 0
325 320 0 320 0 0 -325z m0 -1510 l0 -325 -320 0 -320 0 0 325 0 325 320 0
320 0 0 -325z m0 -1500 l0 -325 -320 0 -320 0 0 325 0 325 320 0 320 0 0 -325z"/>
<path d="M1251 6596 l-83 -193 -192 -18 c-105 -10 -198 -21 -207 -24 -12 -4
25 -42 137 -141 84 -74 153 -139 153 -145 0 -5 -19 -99 -43 -207 -23 -109 -40
-198 -37 -198 2 0 34 18 70 39 36 21 116 68 178 104 l111 65 178 -104 c98 -57
180 -102 182 -100 3 4 -72 362 -83 392 -2 6 66 73 151 149 86 75 152 140 149
143 -3 4 -96 15 -207 27 l-200 20 -82 187 c-45 103 -84 189 -86 192 -3 2 -43
-82 -89 -188z"/>
<path d="M7836 6737 c-13 -31 -51 -116 -82 -189 -32 -73 -60 -136 -63 -139 -3
-4 -85 -14 -181 -23 -96 -9 -190 -19 -207 -22 -33 -5 -32 -6 125 -145 l158
-139 -43 -193 c-23 -105 -42 -198 -40 -205 1 -8 69 26 180 92 l178 105 170
-100 c94 -55 176 -102 183 -105 9 -3 -1 56 -30 188 -24 106 -43 200 -43 208 0
8 69 76 153 150 112 99 149 137 137 141 -9 3 -102 14 -208 24 l-192 18 -85
195 -85 196 -25 -57z"/>
<path d="M2310 4595 l0 -2095 640 0 640 0 0 2095 0 2095 -640 0 -640 0 0
-2095z m968 1473 l-3 -323 -322 -3 -323 -2 0 325 0 325 325 0 325 0 -2 -322z
m0 -1500 l-3 -323 -322 -3 -323 -2 0 325 0 325 325 0 325 0 -2 -322z"/>
<path d="M5610 4595 l0 -2095 640 0 640 0 0 2095 0 2095 -640 0 -640 0 0
-2095z m960 1470 l0 -325 -322 2 -323 3 -3 323 -2 322 325 0 325 0 0 -325z m0
-1500 l0 -325 -322 2 -323 3 -3 323 -2 322 325 0 325 0 0 -325z"/>
<path d="M700 3835 l0 -1335 640 0 640 0 0 1335 0 1335 -640 0 -640 0 0 -1335z
m960 730 l0 -325 -322 2 -323 3 -3 323 -2 322 325 0 325 0 0 -325z"/>
<path d="M7220 3835 l0 -1335 640 0 640 0 0 1335 0 1335 -640 0 -640 0 0
-1335z m962 730 l-3 -325 -319 0 -320 0 0 325 0 325 323 0 322 0 -3 -325z"/>
<path d="M662 1993 l3 -168 270 0 270 0 5 -877 5 -878 33 -32 32 -33 3306 -3
c3635 -2 3349 -7 3387 57 16 27 17 97 17 895 l0 866 275 0 275 0 0 170 0 170
-3940 0 -3940 0 2 -167z m3212 -368 c139 -36 261 -131 324 -252 95 -180 97
-437 5 -623 -90 -183 -269 -290 -488 -290 -266 0 -463 155 -530 415 -22 83
-21 253 0 341 50 201 198 357 388 409 70 19 229 19 301 0z m-1596 -208 l2
-207 165 0 165 0 2 208 3 207 153 1 152 1 0 -574 0 -573 -155 0 -155 0 0 225
0 225 -165 0 -165 0 0 -225 0 -225 -155 0 -155 0 0 575 0 575 153 -3 152 -3 3
-207z m3002 71 l0 -138 -145 0 -145 0 -2 -437 -3 -438 -155 0 -155 0 0 438 0
437 -147 0 -148 0 0 133 c0 74 2 136 5 139 3 3 206 5 450 5 l445 -1 0 -138z
m1010 5 l0 -133 -210 0 -210 0 0 -80 0 -80 200 0 200 0 0 -135 0 -135 -200 0
-200 0 0 -95 0 -95 225 0 225 0 0 -130 0 -130 -380 -2 -380 -3 0 576 0 576
365 0 365 0 0 -134z m615 -306 l0 -437 218 0 217 0 0 -135 0 -135 -375 0 -375
0 0 568 c0 313 2 571 4 573 2 2 73 4 158 4 l153 0 0 -438z"/>
<path d="M3630 1358 c-118 -60 -172 -275 -116 -463 64 -213 307 -235 395 -35
57 129 45 324 -26 432 -56 84 -162 112 -253 66z"/>
</g>
</svg>
